<?xml version="1.0" encoding="utf-8"?>
<svg version="1.1" xmlns="http://www.w3.org/2000/svg" xmlns:xlink="http://www.w3.org/1999/xlink" x="0px" y="0px"
	 viewBox="0 0 256 256" style="enable-background:new 0 0 256 256;" xml:space="preserve">
<style type="text/css">
	.st0{fill:#80933D;}
	.st1{opacity:0.3;fill:#FFFFFF;}
	.st2{fill:#FFFFFF;}
</style>
<rect class="st0" width="256" height="256"/>#
<title>EXT:distributed-locks</title>
<path class="st1" d="M47.5,200.5c0,13.8,36.1,24.9,80.5,24.9s80.5-11.2,80.5-24.9v-32.2c0,13.8-36.1,24.9-80.5,24.9
	s-80.5-11.2-80.5-24.9V200.5z"/>
<path class="st1" d="M47.5,144.1c0,13.8,36.1,24.9,80.5,24.9s80.5-11.2,80.5-24.9v-32.2c0,13.8-36.1,24.9-80.5,24.9
	s-80.5-11.2-80.5-24.9V144.1z"/>
<path class="st2" d="M128,34.5c21.1,0,40.9,2.5,55.8,7.1c15.3,4.7,20.8,10.3,20.8,13.8s-5.5,9.1-20.8,13.8
	c-14.8,4.6-34.6,7.1-55.8,7.1s-40.9-2.5-55.8-7.1C56.9,64.5,51.5,59,51.5,55.5s5.5-9.1,20.8-13.8C87.1,37,106.9,34.5,128,34.5
	 M128,30.5c-44.5,0-80.5,11.2-80.5,24.9c0,13.8,36.1,24.9,80.5,24.9s80.5-11.2,80.5-24.9C208.5,41.7,172.5,30.5,128,30.5L128,30.5z"
	/>
<path class="st1" d="M47.5,87.7c0,13.8,36.1,24.9,80.5,24.9s80.5-11.2,80.5-24.9V55.5c0,13.8-36.1,24.9-80.5,24.9
	S47.5,69.2,47.5,55.5V87.7z"/>
<path class="st2" d="M198.4,99.8c-1.4,0.8-2.8,1.5-4.4,2.2c7.6,3.6,10.5,7.3,10.5,9.9c0,3.6-5.5,9.1-20.8,13.8
	c-14.8,4.6-34.6,7.1-55.8,7.1s-40.9-2.5-55.8-7.1c-15.3-4.7-20.8-10.3-20.8-13.8c0-2.6,2.9-6.3,10.5-9.9c-1.6-0.7-3.1-1.4-4.4-2.2
	c-6.4,3.6-10.1,7.7-10.1,12.1c0,13.8,36.1,24.9,80.5,24.9s80.5-11.2,80.5-24.9C208.5,107.5,204.9,103.4,198.4,99.8z"/>
<path class="st2" d="M198.4,156.2c-1.4,0.8-2.8,1.5-4.4,2.2c7.6,3.6,10.5,7.3,10.5,9.9c0,3.6-5.5,9.1-20.8,13.8
	c-14.8,4.6-34.6,7.1-55.8,7.1s-40.9-2.5-55.8-7.1c-15.3-4.7-20.8-10.3-20.8-13.8c0-2.6,2.9-6.3,10.5-9.9c-1.6-0.7-3.1-1.4-4.4-2.2
	c-6.4,3.6-10.1,7.7-10.1,12.1c0,13.8,36.1,24.9,80.5,24.9s80.5-11.2,80.5-24.9C208.5,163.9,204.9,159.8,198.4,156.2z"/>
<g>
	<g>
		<path class="st0" d="M215.7,235.5v-20c0.2,0,0.4-0.2,0.4-0.4V163c0-0.2-0.2-0.4-0.4-0.4h-62.5c-0.2,0-0.4,0.2-0.4,0.4v52.1
			c0,0.2,0.2,0.4,0.4,0.4v20c-11.3,0-20.4-9.2-20.4-20.4V163c0-9.6,6.7-17.7,15.6-19.8v-1c0-19.9,16.2-36,36-36
			c19.9,0,36,16.2,36,36v1c9,2.2,15.6,10.2,15.6,19.8v52.1C236.2,226.3,227,235.5,215.7,235.5z M178.4,142.6h12.3v-0.4
			c0-3.4-2.8-6.1-6.1-6.1s-6.1,2.8-6.1,6.1V142.6z"/>
	</g>
</g>
<g>
	<path class="st2" d="M215.7,225.5c5.7,0,10.4-4.7,10.4-10.4V163c0-5.7-4.7-10.4-10.4-10.4h-5.2v-10.4c0-14.4-11.7-26-26-26
		c-14.4,0-26,11.7-26,26v10.4h-5.2c-5.7,0-10.4,4.7-10.4,10.4v52.1c0,5.7,4.7,10.4,10.4,10.4 M200.6,152.6h-32.3v-10.4
		c0-8.9,7.2-16.1,16.1-16.1c8.9,0,16.1,7.2,16.1,16.1V152.6z"/>
	<polygon class="st0" points="196.1,181.3 196.1,181.3 196.1,181.3 188.4,189.1 196.1,196.8 196.1,196.8 196.1,196.8 196.1,208.4 
		172.9,208.4 172.9,196.8 172.9,196.8 172.9,196.8 180.6,189.1 172.9,181.3 172.9,181.3 172.9,181.3 172.9,169.7 196.1,169.7 	"/>
</g>
</svg>
